<svg width="24.6px" viewBox="0 0 24.6 17.4" preserveAspectRatio="xMidYMid meet">
<g><path fill="#49BFB0" d="M0,3.2C0,3.1,0.1,3,0.1,2.8C0.6,1.2,2.1,0,3.9,0c5.6,0,11.2,0,16.8,0c2.2,0,3.9,1.7,3.9,3.9c0,3.2,0,6.4,0,9.5c0,2.2-1.6,3.9-3.8,3.9c-5.6,0-11.3,0-16.9,0c-1.8,0-3.3-1.2-3.7-3c0-0.1-0.1-0.1-0.1-0.2V3.2z M22.4,2.8c-0.1,0-0.1,0-0.2,0C22.2,2.9,22.1,3,22,3.2c-2.4,2.9-4.8,5.8-7.2,8.7c-1.5,1.8-3.6,1.8-5.1,0C7.3,9,5,6.1,2.6,3.2C2.5,3,2.4,2.9,2.3,2.8c0,0-0.1,0-0.1,0C2.1,3.2,1.9,3.6,1.9,4c0,3.1,0,6.1,0,9.2c0,1.5,0.8,2.3,2.3,2.3c4.1,0,8.3,0,12.4,0c1.3,0,2.7,0,4,0c1.2,0,2-0.8,2-2c0-3.2,0-6.4,0-9.6C22.7,3.6,22.5,3.2,22.4,2.8 M4.1,1.9c0.1,0.2,0.2,0.3,0.3,0.4c2.2,2.7,4.5,5.5,6.8,8.2c0.8,0.9,1.4,0.9,2.2,0c2.3-2.8,4.6-5.5,6.9-8.3c0.1-0.1,0.1-0.2,0.2-0.3H4.1z"/></g>
</svg>
