<svg width="18.9px" viewBox="0 0 18.9 18.9" preserveAspectRatio="xMidYMid meet">
<g>
	<path class="st0" d="M9.5,0c1.4,0,2.8,0,4.1,0c3,0,5.2,2.2,5.3,5.2c0,2.8,0,5.6,0,8.4c0,3-2.3,5.2-5.3,5.2c-2.8,0-5.6,0-8.3,0
		c-3,0-5.2-2.2-5.3-5.2C0,10.8,0,8,0,5.2c0-3,2.3-5.2,5.3-5.2C6.7,0,8.1,0,9.5,0 M1.7,9.4c0,1.4,0,2.8,0,4.1c0,2,1.4,3.6,3.4,3.6
		c2.9,0.1,5.8,0.1,8.7,0c2,0,3.4-1.6,3.4-3.6c0-2.8,0-5.5,0-8.3c0-2-1.4-3.5-3.4-3.6c-2.9-0.1-5.8-0.1-8.7,0c-2,0-3.4,1.6-3.4,3.6
		C1.7,6.6,1.7,8,1.7,9.4"/>
	<path class="st0" d="M14.3,9.4c0,2.7-2.1,4.9-4.8,4.9c-2.7,0-4.9-2.2-4.9-4.9c0-2.7,2.2-4.8,4.8-4.8C12.1,4.6,14.3,6.7,14.3,9.4
		 M9.5,12.6c1.8,0,3.2-1.5,3.2-3.2c0-1.8-1.5-3.2-3.2-3.2c-1.8,0-3.2,1.5-3.2,3.2C6.3,11.2,7.7,12.6,9.5,12.6"/>
	<path class="st0" d="M14.5,5.6c-0.7,0-1.2-0.6-1.2-1.2c0-0.6,0.6-1.2,1.2-1.2c0.7,0,1.2,0.6,1.2,1.2C15.7,5.1,15.2,5.6,14.5,5.6"/>
</g>
</svg>
