<svg width="18" viewBox="0 0 18.9 18.9"><g><path fill="#49BFB0" d="M9.5,0c1.4,0,2.8,0,4.1,0c3,0,5.2,2.2,5.3,5.2c0,2.8,0,5.6,0,8.4c0,3-2.3,5.2-5.3,5.2c-2.8,0-5.6,0-8.3,0c-3,0-5.2-2.2-5.3-5.2C0,10.8,0,8,0,5.2c0-3,2.3-5.2,5.3-5.2C6.7,0,8.1,0,9.5,0 M1.7,9.4c0,1.4,0,2.8,0,4.1c0,2,1.4,3.6,3.4,3.6c2.9,0.1,5.8,0.1,8.7,0c2,0,3.4-1.6,3.4-3.6c0-2.8,0-5.5,0-8.3c0-2-1.4-3.5-3.4-3.6c-2.9-0.1-5.8-0.1-8.7,0c-2,0-3.4,1.6-3.4,3.6C1.7,6.6,1.7,8,1.7,9.4"/>    <path fill="#49BFB0" d="M15.9,5.6c-0.2,0.2-0.3,0.4-0.5,0.5c-0.2,0.2-0.4,0.4-0.7,0.6c-0.1,0.1-0.1,0.1-0.1,0.2c0,2.2-0.8,4-2.4,5.5c-1,1-2.3,1.5-3.7,1.7C7,14.4,5.4,14.1,4,13.2c0,0-0.1,0-0.1-0.1c0,0,0,0,0,0c1.3,0.1,2.5-0.2,3.6-1c-1.1-0.1-1.9-0.7-2.3-1.7c0.4,0,0.7,0.1,1.1,0c-0.6-0.2-1-0.4-1.4-0.9C4.5,9,4.3,8.5,4.3,7.9C4.7,8,5,8.2,5.4,8.2c-0.7-0.5-1-1.1-1.1-1.9c0-0.5,0.1-1,0.3-1.4c1.3,1.6,3,2.4,5.1,2.6c0-0.3,0-0.6,0-0.9c0.1-1.1,1.1-2,2.2-2.1c0.8-0.1,1.5,0.2,2,0.7c0,0,0.1,0.1,0.2,0c0.5-0.1,0.9-0.3,1.3-0.5c0,0,0.1,0,0.2-0.1c-0.2,0.6-0.5,1-1,1.3C15,5.9,15.5,5.8,15.9,5.6C15.9,5.6,15.9,5.6,15.9,5.6"/></g></svg>
