<svg width="18px" viewBox="0 0 18.9 18.9" preserveAspectRatio="xMidYMid meet">
<g>
	<path fill="#49BFB0" d="M9.5,0c1.4,0,2.8,0,4.1,0c3,0,5.2,2.2,5.3,5.2c0,2.8,0,5.6,0,8.4c0,3-2.3,5.2-5.3,5.2c-2.8,0-5.6,0-8.3,0
		c-3,0-5.2-2.2-5.3-5.2C0,10.8,0,8,0,5.2c0-3,2.3-5.2,5.3-5.2C6.7,0,8.1,0,9.5,0 M1.7,9.4c0,1.4,0,2.8,0,4.1c0,2,1.4,3.6,3.4,3.6
		c2.9,0.1,5.8,0.1,8.7,0c2,0,3.4-1.6,3.4-3.6c0-2.8,0-5.5,0-8.3c0-2-1.4-3.5-3.4-3.6c-2.9-0.1-5.8-0.1-8.7,0c-2,0-3.4,1.6-3.4,3.6
		C1.7,6.6,1.7,8,1.7,9.4"/>
	<path fill="#49BFB0" d="M12.5,14.3v-0.1c0-1.2,0-2.4,0-3.6c0-0.2,0-0.5-0.1-0.7c-0.2-0.8-1.2-1.1-1.8-0.5c-0.3,0.3-0.4,0.6-0.5,1
		c0,0.2,0,0.5,0,0.7c0,1.1,0,2.1,0,3.2v0.1H7.8v-7h2.4v0.8c0,0,0,0,0,0c0,0,0,0,0,0c0.5-0.7,1.2-1,2-1c0.6,0,1.2,0.2,1.7,0.6
		c0.4,0.4,0.7,0.8,0.8,1.4c0.1,0.4,0.1,0.7,0.1,1.1c0,1.3,0,2.7,0,4v0.1H12.5z"/>
	<rect x="4.2" y="7.4" fill="#49BFB0" width="2.4" height="7"/>
	<path fill="#49BFB0" d="M5.4,6.5c-0.4,0-0.8-0.1-1-0.4C4.1,5.7,4,5.3,4.1,4.9c0.1-0.4,0.5-0.7,0.9-0.8c0.3-0.1,0.7,0,1,0.1
		c0.4,0.2,0.7,0.7,0.7,1.2C6.7,5.9,6.3,6.3,5.8,6.5c-0.1,0-0.1,0-0.2,0C5.5,6.5,5.5,6.5,5.4,6.5"/>
</g>
</svg>
