<svg width="18px" viewBox="0 0 18.9 18.9" preserveAspectRatio="xMidYMid meet">
	<g>
		<path fill="#49BFB0" d="M9.5,0c1.4,0,2.8,0,4.1,0c3,0,5.2,2.2,5.3,5.2c0,2.8,0,5.6,0,8.4c0,3-2.3,5.2-5.3,5.2c-2.8,0-5.5,0-8.3,0c-3,0-5.2-2.2-5.3-5.2C0,10.8,0,8,0,5.2c0-3,2.3-5.2,5.3-5.2C6.7,0,8.1,0,9.5,0 M1.7,9.4c0,1.4,0,2.8,0,4.1c0,2,1.4,3.6,3.4,3.6c2.9,0.1,5.8,0.1,8.7,0c2,0,3.4-1.6,3.4-3.6c0-2.8,0-5.5,0-8.3c0-2-1.4-3.5-3.4-3.6c-2.9-0.1-5.8-0.1-8.7,0c-2,0-3.4,1.6-3.4,3.6C1.7,6.6,1.7,8,1.7,9.4"/>
		<path fill="#49BFB0" d="M12.2,5.1H7c-1.5,0-2.7,1.2-2.7,2.7v3.3c0,1.5,1.2,2.7,2.7,2.7h5.3c1.5,0,2.7-1.2,2.7-2.7V7.8C14.9,6.3,13.7,5.1,12.2,5.1z M8.6,11.6l0-4.3l3.1,2.1L8.6,11.6z"/>
	</g>
</svg>
